<svg xmlns="http://www.w3.org/2000/svg" fill="none" viewBox="0 0 8 8" class="h-8 sm:hidden"><defs><linearGradient id="gradient_0" x1="1.431" x2="4.927" y1="2.945" y2="1.239" gradientUnits="userSpaceOnUse"><stop offset="0.014" stop-color="#E201BE"/><stop offset="0.67" stop-color="#5F2EEA"/><stop offset="0.997" stop-color="#00BFDB"/></linearGradient><linearGradient id="gradient_1" x1="5.17" x2="6.76" y1="4.049" y2="3.589" gradientUnits="userSpaceOnUse"><stop offset="0.014" stop-color="#E201BE"/><stop offset="0.67" stop-color="#5F2EEA"/><stop offset="0.997" stop-color="#00BFDB"/></linearGradient><linearGradient id="gradient_2" x1="2.143" x2="6.759" y1="4.487" y2="2.031" gradientUnits="userSpaceOnUse"><stop offset="0.014" stop-color="#E201BE"/><stop offset="0.67" stop-color="#5F2EEA"/><stop offset="0.997" stop-color="#00BFDB"/></linearGradient></defs><path stroke="url(#gradient_0)" stroke-linecap="round" stroke-linejoin="round" stroke-width="0.463" d="M4.666 5.174c-.506-.217-.937-.509-1.628-1.153-1.316-1.22-1.955-2.62-1.415-3.12.336-.316 1.368-.304 2.673.648"/><path stroke="url(#gradient_1)" stroke-linecap="round" stroke-linejoin="round" stroke-width="0.463" d="M5.17 2.554c.992 1.125 1.584 2.36 1.135 2.813-.177.176-.466.217-.824.142"/><path stroke="url(#gradient_2)" stroke-linecap="round" stroke-linejoin="round" stroke-width="0.463" d="M3.344 3.415c.98-1.363 2.15-1.97 2.822-1.633.703.353.462 1.857-.531 3.353-.994 1.497-2.38 2.427-3.082 2.074-.582-.292-.53-1.434.067-2.642"/></svg>